# xmcd CD Database Entry
#
# Track frame offsets:
# 150
# 17664
# 35932
# 58880
# 73923
# 93024
# 110798
# 129481
# 144628
# 162896
# 185662
# 202733
#
# Disc length: 2839 seconds
#
# Revision: 2
# Processed by: cddbd v1.4PL0 Copyright (c) Steve Scherf et al.
# Submitted via: tcd 2.0b
#
DISCID=b10b150c
DTITLE=Lady Pank - Lowcy glow
DYEAR=1900
DGENRE=
TTITLE0=Prawda i serce
TTITLE1=Znowu pada deszcz
TTITLE2=UFO
TTITLE3=Slepy strach
TTITLE4=Nieustraszeni lowcy glow
TTITLE5=Wierny jak pies
TTITLE6=Maly rastaman
TTITLE7=Nie spogladaj nigdy wstecz
TTITLE8=List do B.
TTITLE9=Slowa, slowa, slowa
TTITLE10=Latac moze kazdy
TTITLE11=Do Alicji (instrumantal)
EXTD=
EXTT0=
EXTT1=
EXTT2=
EXTT3=
EXTT4=
EXTT5=
EXTT6=
EXTT7=
EXTT8=
EXTT9=
EXTT10=
EXTT11=
PLAYORDER=
